HIERARCHY
ROOT Hips
{
	OFFSET 0.000000 0.000000 0.000000
	CHANNELS 6 Xposition Yposition Zposition Zrotation Yrotation Xrotation 
	JOINT LHipJoint
	{
		OFFSET 0.000000 0.000000 0.000000
		CHANNELS 3 Zrotation Yrotation Xrotation
		JOINT LeftUpLeg
		{
			OFFSET 1.363060 -1.794630 0.839290
			CHANNELS 3 Zrotation Yrotation Xrotation
			JOINT LeftLeg
			{
				OFFSET 2.448110 -6.726130 0.000000
				CHANNELS 3 Zrotation Yrotation Xrotation
				JOINT LeftFoot
				{
					OFFSET 2.562200 -7.039590 0.000000
					CHANNELS 3 Zrotation Yrotation Xrotation
					JOINT LeftToeBase
					{
						OFFSET 0.157640 -0.433110 2.322550
						CHANNELS 3 Zrotation Yrotation Xrotation
						End Site
						{
							OFFSET 0.000000 0.000000 0.000000
						}
					}
				}
			}
		}
	}
	JOINT RHipJoint
	{
		OFFSET 0.000000 0.000000 0.000000
		CHANNELS 3 Zrotation Yrotation Xrotation
		JOINT RightUpLeg
		{
			OFFSET -1.305520 -1.794630 0.839290
			CHANNELS 3 Zrotation Yrotation Xrotation
			JOINT RightLeg
			{
				OFFSET -2.542530 -6.985550 0.000000
				CHANNELS 3 Zrotation Yrotation Xrotation
				JOINT RightFoot
				{
					OFFSET -2.568260 -7.056230 0.000000
					CHANNELS 3 Zrotation Yrotation Xrotation
					JOINT RightToeBase
					{
						OFFSET -0.164730 -0.452590 2.363150
						CHANNELS 3 Zrotation Yrotation Xrotation
						End Site
						{
							OFFSET 0.000000 0.000000 0.000000
						}
					}
				}
			}
		}
	}
	JOINT LowerBack
	{
		OFFSET 0.000000 0.000000 0.000000
		CHANNELS 3 Zrotation Yrotation Xrotation
		JOINT Spine
		{
			OFFSET 0.028270 2.035590 -0.193380
			CHANNELS 3 Zrotation Yrotation Xrotation
			JOINT Spine1
			{
				OFFSET 0.056720 2.048850 -0.042750
				CHANNELS 3 Zrotation Yrotation Xrotation
				JOINT Neck
				{
					OFFSET 0.000000 0.000000 0.000000
					CHANNELS 3 Zrotation Yrotation Xrotation
					JOINT Neck1
					{
						OFFSET -0.054170 1.746240 0.172020
						CHANNELS 3 Zrotation Yrotation Xrotation
						JOINT Head
						{
							OFFSET 0.104070 1.761360 -0.123970
							CHANNELS 3 Zrotation Yrotation Xrotation
							End Site
							{
								OFFSET 0.000000 0.000000 0.000000
							}
						}
					}
				}
				JOINT LeftShoulder
				{
					OFFSET 0.000000 0.000000 0.000000
					CHANNELS 3 Zrotation Yrotation Xrotation
					JOINT LeftArm
					{
						OFFSET 3.362410 1.200890 -0.311210
						CHANNELS 3 Zrotation Yrotation Xrotation
						JOINT LeftForeArm
						{
							OFFSET 4.983000 -0.000000 -0.000000
							CHANNELS 3 Zrotation Yrotation Xrotation
							JOINT LeftHand
							{
								OFFSET 3.483560 -0.000000 -0.000000
								CHANNELS 3 Zrotation Yrotation Xrotation
								JOINT LeftFingerBase
								{
									OFFSET 0.000000 0.000000 0.000000
									CHANNELS 3 Zrotation Yrotation Xrotation
									JOINT LeftHandIndex1
									{
										OFFSET 0.715260 -0.000000 -0.000000
										CHANNELS 3 Zrotation Yrotation Xrotation
										End Site
										{
											OFFSET 0.000000 0.000000 0.000000
										}
									}
								}
								JOINT LThumb
								{
									OFFSET 0.000000 0.000000 0.000000
									CHANNELS 3 Zrotation Yrotation Xrotation
									End Site
									{
										OFFSET 0.000000 0.000000 0.000000
									}
								}
							}
						}
					}
				}
				JOINT RightShoulder
				{
					OFFSET 0.000000 0.000000 0.000000
					CHANNELS 3 Zrotation Yrotation Xrotation
					JOINT RightArm
					{
						OFFSET -3.136600 1.374050 -0.404650
						CHANNELS 3 Zrotation Yrotation Xrotation
						JOINT RightForeArm
						{
							OFFSET -5.241900 -0.000000 -0.000000
							CHANNELS 3 Zrotation Yrotation Xrotation
							JOINT RightHand
							{
								OFFSET -3.444170 -0.000000 -0.000000
								CHANNELS 3 Zrotation Yrotation Xrotation
								JOINT RightFingerBase
								{
									OFFSET 0.000000 0.000000 0.000000
									CHANNELS 3 Zrotation Yrotation Xrotation
									JOINT RightHandIndex1
									{
										OFFSET -0.622530 -0.000000 -0.000000
										CHANNELS 3 Zrotation Yrotation Xrotation
										End Site
										{
											OFFSET 0.000000 0.000000 0.000000
										}
									}
								}
								JOINT RThumb
								{
									OFFSET 0.000000 0.000000 0.000000
									CHANNELS 3 Zrotation Yrotation Xrotation
									End Site
									{
										OFFSET 0.000000 0.000000 0.000000
									}
								}
							}
						}
					}
				}
			}
		}
	}
}
MOTION
Frames: 8
Frame Time: 0.008333
-12.110504 17.011004 -0.950747 29.378535 87.646366 39.735053 -11.648192 5.277965 1.154885 -8.036027 9.854037 2.687356 -1.674472 1.202923 20.128458 -0.073829 -3.933711 5.921298 -0.687700 0.000000 -74.278100 7.343801 -1.579394 5.578962 13.966543 8.928236 -28.436639 3.322425 0.950065 5.247801 -0.362523 -2.891641 2.713040 -1.405900 -0.000000 -13.057900 1.799409 -7.069074 -7.935882 0.343932 -7.423986 -3.929514 -5.758378 -7.475771 1.963995 10.699406 -21.411762 -10.198396 -3.355401 -0.238274 -0.568417 0.000000 0.000000 0.000000 -0.262796 4.883192 0.095553 -63.418128 -9.670089 2.249413 -1.950043 -60.055541 -0.037579 9.706994 -2.935469 -0.275292 -0.130462 0.287570 -0.000000 0.000000 0.000000 0.000000 0.000000 0.000000 0.000000 18.018905 -20.565616 -0.653791 63.034399 -9.012858 -16.282700 1.717644 56.237045 0.003228 -4.125475 5.468242 -0.208086 0.129709 -0.150132 0.000000 0.000000 0.000000 0.000000 0.000000 0.000000 0.000000 
-11.944713 17.032200 -0.941065 13.466552 87.102481 23.715732 -11.765934 5.567996 1.157275 -7.367140 10.384287 1.802289 -1.581965 1.461174 22.142772 -0.005178 -4.287592 7.681473 -0.929900 0.000000 -76.211200 7.382693 -1.448021 5.479084 14.635289 8.865739 -27.683017 3.433306 0.965589 5.612772 -0.252016 -2.404427 2.593565 -1.291199 0.000000 -11.181901 2.204769 -6.774552 -7.897144 0.396016 -7.174778 -3.939598 -5.781574 -7.226045 1.929823 10.685615 -21.272816 -10.153173 -3.349946 -0.238604 -0.555898 0.000000 0.000000 0.000000 -0.409331 5.043715 0.078252 -64.007850 -9.156864 2.118739 -1.974822 -59.417576 -0.036336 9.663458 -2.940618 -0.273878 -0.127531 0.279602 -0.000000 0.000000 0.000000 0.000000 0.000000 0.000000 0.000000 17.922561 -20.275654 -0.647293 62.806002 -8.595457 -16.091005 1.703081 56.509716 0.003052 -4.157140 5.506767 -0.211176 0.130235 -0.153616 0.000000 0.000000 0.000000 0.000000 0.000000 0.000000 0.000000 
-11.781688 17.052739 -0.930004 -2.043905 86.709987 8.096209 -11.604025 5.780727 1.116945 -6.566085 10.940009 0.847942 -1.473473 1.695212 24.336644 0.066458 -4.758521 9.482709 -1.231500 0.000000 -77.218700 7.651606 -1.328592 5.416524 15.381053 8.736526 -26.938512 3.524514 0.954917 5.910661 -0.152955 -1.870764 2.363201 -1.150000 0.000001 -9.475200 2.862863 -6.513065 -7.821465 0.506548 -6.992593 -3.940224 -5.816543 -7.045506 1.892313 10.686462 -21.129125 -10.107720 -3.346951 -0.239139 -0.543651 0.000000 0.000000 0.000000 -0.504757 5.154157 0.069233 -64.634878 -8.628348 1.979438 -1.997116 -58.726730 -0.035186 9.622218 -2.927459 -0.270859 -0.124510 0.271842 0.000000 0.000000 0.000000 0.000000 0.000000 0.000000 0.000000 17.846925 -20.011517 -0.649619 62.602392 -8.145255 -15.820907 1.684513 56.788602 0.002856 -4.159546 5.529020 -0.212272 0.130022 -0.156765 0.000000 0.000000 0.000000 0.000000 0.000000 0.000000 0.000000 
-11.621600 17.072187 -0.917732 -15.334733 86.602266 -5.305196 -11.386219 5.824574 1.041239 -5.714739 11.473819 -0.165833 -1.297780 1.861289 26.717070 0.137015 -5.288598 11.282468 -1.575700 -0.000000 -77.182200 7.921840 -1.341843 5.388609 16.094351 8.509982 -26.238924 3.598136 0.914627 6.105109 -0.078494 -1.343690 2.029832 -0.999700 0.000001 -8.021800 3.489981 -6.378445 -7.730193 0.624957 -6.934479 -3.933859 -5.844141 -6.990455 1.856310 10.699320 -20.979825 -10.060131 -3.346450 -0.239927 -0.531025 0.000000 0.000000 0.000000 -0.551194 5.189268 0.076148 -65.278332 -8.094843 1.845941 -2.020641 -57.988843 -0.034110 9.583607 -2.896236 -0.266523 -0.122162 0.264543 0.000000 0.000000 0.000000 0.000000 0.000000 0.000000 0.000000 17.795766 -19.803175 -0.668901 62.429825 -7.673821 -15.479329 1.659187 57.084914 0.002634 -4.133587 5.535315 -0.211272 0.128770 -0.159363 0.000000 0.000000 0.000000 0.000000 0.000000 0.000000 0.000000 
-11.464459 17.090236 -0.904155 -25.570744 86.610150 -15.646110 -11.283604 5.767038 0.956747 -4.937169 11.991468 -1.264401 -1.081791 1.977301 29.218490 0.217613 -5.748088 13.004919 -1.923700 0.000000 -76.045300 8.063935 -1.447053 5.361066 16.710125 8.206850 -25.572203 3.670170 0.871479 6.244891 -0.012204 -0.809160 1.637073 -0.851001 0.000000 -6.952100 3.905379 -6.321744 -7.639273 0.706236 -6.928361 -3.924386 -5.862818 -6.987261 1.824823 10.729526 -20.827377 -10.014307 -3.346782 -0.240752 -0.518932 0.000000 0.000000 0.000000 -0.554153 5.197578 0.090684 -65.915319 -7.555896 1.724322 -2.044768 -57.221872 -0.033047 9.548223 -2.849092 -0.260982 -0.120390 0.257266 0.000000 0.000000 0.000000 0.000000 0.000000 0.000000 0.000000 17.773051 -19.618151 -0.696769 62.288361 -7.171161 -15.059060 1.630600 57.399062 0.002403 -4.085720 5.526895 -0.208574 0.126925 -0.161671 0.000000 0.000000 0.000000 0.000000 0.000000 0.000000 0.000000 
-11.310260 17.106640 -0.889866 -33.810678 86.617221 -23.975999 -11.271719 5.667931 0.868599 -4.233638 12.512330 -2.463330 -0.858700 2.067841 31.806115 0.312360 -6.033863 14.561069 -2.226600 -0.000000 -73.855300 8.116018 -1.580002 5.331721 17.257330 7.886005 -24.913128 3.744557 0.840668 6.330594 0.048512 -0.304052 1.233913 -0.718300 -0.000000 -6.266200 4.181714 -6.283596 -7.551097 0.758463 -6.923396 -3.914195 -5.880334 -6.984618 1.796237 10.773445 -20.667448 -9.972426 -3.347323 -0.241521 -0.507942 0.000000 0.000000 0.000000 -0.533029 5.211419 0.108539 -66.532841 -7.013562 1.617041 -2.068257 -56.440815 -0.031992 9.515787 -2.789595 -0.254440 -0.118874 0.249841 0.000000 0.000000 0.000000 0.000000 0.000000 0.000000 0.000000 17.768709 -19.424990 -0.725602 62.175048 -6.634250 -14.566797 1.601205 57.729380 0.002182 -4.019841 5.508205 -0.204573 0.124792 -0.163944 0.000000 0.000000 0.000000 0.000000 0.000000 0.000000 0.000000 
-11.158910 17.121332 -0.875127 -40.615616 86.598435 -30.849553 -11.308444 5.547290 0.778864 -3.606644 13.020151 -3.757090 -0.643069 2.144356 34.452655 0.419495 -6.041042 15.872418 -2.423199 -0.000000 -70.742700 8.118815 -1.714726 5.303982 17.752049 7.567186 -24.264870 3.818308 0.823932 6.365272 0.101798 0.145557 0.847186 -0.607100 0.000000 -5.997000 4.375704 -6.242998 -7.468004 0.790986 -6.905779 -3.904227 -5.900914 -6.968683 1.770359 10.829617 -20.500517 -9.936484 -3.348295 -0.242232 -0.498596 0.000000 0.000000 0.000000 -0.502442 5.243234 0.129090 -67.118235 -6.473554 1.532455 -2.090817 -55.655655 -0.030937 9.485626 -2.722250 -0.247397 -0.117482 0.242266 0.000000 0.000000 0.000000 0.000000 0.000000 0.000000 0.000000 17.780945 -19.216205 -0.753327 62.083802 -6.060631 -14.007475 1.571757 58.072761 0.001975 -3.945667 5.484953 -0.200071 0.122556 -0.166280 0.000000 0.000000 0.000000 0.000000 0.000000 0.000000 0.000000 
-11.010357 17.134301 -0.860229 -46.526437 86.558654 -36.804958 -11.366189 5.406825 0.687286 -3.051365 13.495573 -5.134665 -0.438024 2.211708 37.135130 0.535764 -5.686726 16.878454 -2.457100 -0.000000 -66.927000 8.094713 -1.845177 5.282915 18.207031 7.264578 -23.631568 3.888564 0.820025 6.342758 0.143640 0.513050 0.491445 -0.520300 -0.000000 -6.121900 4.526202 -6.195679 -7.391766 0.811614 -6.876108 -3.895099 -5.926281 -6.940128 1.746884 10.895069 -20.325020 -9.906918 -3.350239 -0.242933 -0.491034 0.000000 0.000000 0.000000 -0.476896 5.296900 0.153286 -67.661204 -5.941524 1.479021 -2.112698 -54.874725 -0.029875 9.456373 -2.651894 -0.240055 -0.116184 0.234602 0.000000 0.000000 0.000000 0.000000 0.000000 0.000000 0.000000 17.807589 -18.989988 -0.779696 62.009010 -5.450029 -13.389910 1.542388 58.423609 0.001767 -3.873891 5.464082 -0.195767 0.120321 -0.168732 0.000000 0.000000 0.000000 0.000000 0.000000 0.000000 0.000000 
